<svg width="125" height="63" viewBox="0 0 125 63" fill="none" xmlns="http://www.w3.org/2000/svg">
<g filter="url(#filter0_d_138_705)">
<path d="M23.5126 47.7402L33.4523 51.9612C37.5786 53.7134 42.0992 50.4865 41.7826 46.0148L39.4813 13.5107C39.3222 11.2623 37.9163 9.29284 35.8415 8.4118L25.2521 3.91494C21.0795 2.14303 16.5246 5.4606 16.931 9.97556L19.882 42.7555C20.0804 44.9594 21.4758 46.8753 23.5126 47.7402Z" stroke="#F3F3F3" stroke-width="4" stroke-linecap="round" stroke-linejoin="round" shape-rendering="crispEdges"/>
</g>
<path d="M64.048 14.152V25.624C64.048 27.4 63.544 28.768 62.536 29.728C61.544 30.688 60.2 31.168 58.504 31.168C56.728 31.168 55.304 30.664 54.232 29.656C53.16 28.648 52.624 27.216 52.624 25.36H56.704C56.704 26.064 56.848 26.6 57.136 26.968C57.424 27.32 57.84 27.496 58.384 27.496C58.88 27.496 59.264 27.336 59.536 27.016C59.808 26.696 59.944 26.232 59.944 25.624V14.152H64.048ZM73.459 31.192C72.147 31.192 70.963 30.912 69.907 30.352C68.867 29.792 68.043 28.992 67.435 27.952C66.843 26.912 66.547 25.696 66.547 24.304C66.547 22.928 66.851 21.72 67.459 20.68C68.067 19.624 68.899 18.816 69.955 18.256C71.011 17.696 72.195 17.416 73.507 17.416C74.819 17.416 76.003 17.696 77.059 18.256C78.115 18.816 78.947 19.624 79.555 20.68C80.163 21.72 80.467 22.928 80.467 24.304C80.467 25.68 80.155 26.896 79.531 27.952C78.923 28.992 78.083 29.792 77.011 30.352C75.955 30.912 74.771 31.192 73.459 31.192ZM73.459 27.64C74.243 27.64 74.907 27.352 75.451 26.776C76.011 26.2 76.291 25.376 76.291 24.304C76.291 23.232 76.019 22.408 75.475 21.832C74.947 21.256 74.291 20.968 73.507 20.968C72.707 20.968 72.043 21.256 71.515 21.832C70.987 22.392 70.723 23.216 70.723 24.304C70.723 25.376 70.979 26.2 71.491 26.776C72.019 27.352 72.675 27.64 73.459 27.64ZM86.7483 19.84C87.2283 19.104 87.8283 18.528 88.5483 18.112C89.2683 17.68 90.0683 17.464 90.9483 17.464V21.808H89.8203C88.7963 21.808 88.0283 22.032 87.5163 22.48C87.0043 22.912 86.7483 23.68 86.7483 24.784V31H82.6443V17.608H86.7483V19.84ZM100.374 27.52V31H98.2859C96.7979 31 95.6379 30.64 94.8059 29.92C93.9739 29.184 93.5579 27.992 93.5579 26.344V21.016H91.9259V17.608H93.5579V14.344H97.6619V17.608H100.35V21.016H97.6619V26.392C97.6619 26.792 97.7579 27.08 97.9499 27.256C98.1419 27.432 98.4619 27.52 98.9099 27.52H100.374ZM101.844 24.28C101.844 22.904 102.1 21.696 102.612 20.656C103.14 19.616 103.852 18.816 104.748 18.256C105.644 17.696 106.644 17.416 107.748 17.416C108.692 17.416 109.516 17.608 110.22 17.992C110.94 18.376 111.492 18.88 111.876 19.504V17.608H115.98V31H111.876V29.104C111.476 29.728 110.916 30.232 110.196 30.616C109.492 31 108.668 31.192 107.724 31.192C106.636 31.192 105.644 30.912 104.748 30.352C103.852 29.776 103.14 28.968 102.612 27.928C102.1 26.872 101.844 25.656 101.844 24.28ZM111.876 24.304C111.876 23.28 111.588 22.472 111.012 21.88C110.452 21.288 109.764 20.992 108.948 20.992C108.132 20.992 107.436 21.288 106.86 21.88C106.3 22.456 106.02 23.256 106.02 24.28C106.02 25.304 106.3 26.12 106.86 26.728C107.436 27.32 108.132 27.616 108.948 27.616C109.764 27.616 110.452 27.32 111.012 26.728C111.588 26.136 111.876 25.328 111.876 24.304ZM123.053 13.24V31H118.949V13.24H123.053Z" fill="white"/>
<path d="M75.26 42.41C75.5133 42.45 75.7433 42.5534 75.95 42.72C76.1633 42.8867 76.33 43.0934 76.45 43.34C76.5767 43.5867 76.64 43.85 76.64 44.13C76.64 44.4834 76.55 44.8034 76.37 45.09C76.19 45.37 75.9267 45.5934 75.58 45.76C75.24 45.92 74.8367 46 74.37 46H71.77V39.03H74.27C74.7433 39.03 75.1467 39.11 75.48 39.27C75.8133 39.4234 76.0633 39.6334 76.23 39.9C76.3967 40.1667 76.48 40.4667 76.48 40.8C76.48 41.2134 76.3667 41.5567 76.14 41.83C75.92 42.0967 75.6267 42.29 75.26 42.41ZM72.68 42.04H74.21C74.6367 42.04 74.9667 41.94 75.2 41.74C75.4333 41.54 75.55 41.2634 75.55 40.91C75.55 40.5567 75.4333 40.28 75.2 40.08C74.9667 39.88 74.63 39.78 74.19 39.78H72.68V42.04ZM74.29 45.25C74.7433 45.25 75.0967 45.1434 75.35 44.93C75.6033 44.7167 75.73 44.42 75.73 44.04C75.73 43.6534 75.5967 43.35 75.33 43.13C75.0633 42.9034 74.7067 42.79 74.26 42.79H72.68V45.25H74.29ZM82.6228 40.52L79.3228 48.58H78.3828L79.4628 45.94L77.2528 40.52H78.2628L79.9828 44.96L81.6828 40.52H82.6228ZM91.6836 46H90.7736L87.1136 40.45V46H86.2036V39.02H87.1136L90.7736 44.56V39.02H91.6836V46ZM92.8948 42.51C92.8948 41.83 93.0482 41.22 93.3548 40.68C93.6615 40.1334 94.0782 39.7067 94.6048 39.4C95.1382 39.0934 95.7282 38.94 96.3748 38.94C97.1348 38.94 97.7982 39.1234 98.3648 39.49C98.9315 39.8567 99.3448 40.3767 99.6048 41.05H98.5148C98.3215 40.63 98.0415 40.3067 97.6748 40.08C97.3148 39.8534 96.8815 39.74 96.3748 39.74C95.8882 39.74 95.4515 39.8534 95.0648 40.08C94.6782 40.3067 94.3748 40.63 94.1548 41.05C93.9348 41.4634 93.8248 41.95 93.8248 42.51C93.8248 43.0634 93.9348 43.55 94.1548 43.97C94.3748 44.3834 94.6782 44.7034 95.0648 44.93C95.4515 45.1567 95.8882 45.27 96.3748 45.27C96.8815 45.27 97.3148 45.16 97.6748 44.94C98.0415 44.7134 98.3215 44.39 98.5148 43.97H99.6048C99.3448 44.6367 98.9315 45.1534 98.3648 45.52C97.7982 45.88 97.1348 46.06 96.3748 46.06C95.7282 46.06 95.1382 45.91 94.6048 45.61C94.0782 45.3034 93.6615 44.88 93.3548 44.34C93.0482 43.8 92.8948 43.19 92.8948 42.51ZM101.849 39.03V43.44C101.849 44.06 101.999 44.52 102.299 44.82C102.606 45.12 103.029 45.27 103.569 45.27C104.103 45.27 104.519 45.12 104.819 44.82C105.126 44.52 105.279 44.06 105.279 43.44V39.03H106.189V43.43C106.189 44.01 106.073 44.5 105.839 44.9C105.606 45.2934 105.289 45.5867 104.889 45.78C104.496 45.9734 104.053 46.07 103.559 46.07C103.066 46.07 102.619 45.9734 102.219 45.78C101.826 45.5867 101.513 45.2934 101.279 44.9C101.053 44.5 100.939 44.01 100.939 43.43V39.03H101.849Z" fill="white"/>
<defs>
<filter id="filter0_d_138_705" x="10.9053" y="1.42661" width="36.8933" height="61.0223" filterUnits="userSpaceOnUse" color-interpolation-filters="sRGB">
<feFlood flood-opacity="0" result="BackgroundImageFix"/>
<feColorMatrix in="SourceAlpha" type="matrix" values="0 0 0 0 0 0 0 0 0 0 0 0 0 0 0 0 0 0 127 0" result="hardAlpha"/>
<feOffset dy="4"/>
<feGaussianBlur stdDeviation="2"/>
<feComposite in2="hardAlpha" operator="out"/>
<feColorMatrix type="matrix" values="0 0 0 0 0 0 0 0 0 0 0 0 0 0 0 0 0 0 0.25 0"/>
<feBlend mode="normal" in2="BackgroundImageFix" result="effect1_dropShadow_138_705"/>
<feBlend mode="normal" in="SourceGraphic" in2="effect1_dropShadow_138_705" result="shape"/>
</filter>
</defs>
</svg>
